<svg xmlns="http://www.w3.org/2000/svg" width="219" height="222" viewBox="0 0 219 222"> <g fill="none" fill-rule="evenodd" transform="translate(.512 .13)"> <ellipse cx="109.147" cy="110.5" fill="#FFF" rx="109.147" ry="110.5"></ellipse> <path fill="#185274" fill-rule="nonzero" d="M83.4908973,196.5 C42.5908973,187.4 12.7908973,158.7 2.39089733,118.4 C-0.909102666,105.4 -0.809102666,85.4 2.79089733,71.9 C10.6908973,41.8 30.1908973,17.9 57.9908973,4.4 C65.5908973,0.7 68.0908973,0 72.8908973,0 C80.2908973,0 84.5908973,2.5 87.3908973,8.4 C89.4908973,12.6 89.4908973,13.9 89.4908973,82.4 L89.4908973,152.2 L76.7908973,151.8 C65.5908973,151.5 63.3908973,151.2 59.0908973,149 C52.3908973,145.6 45.1908973,137.3 40.4908973,127.6 C36.6908973,119.7 32.4908973,105.9 32.4908973,101.3 C32.4908973,99.6 31.8908973,99 30.3908973,99 C28.1908973,99 28.1908973,99.2 30.0908973,143.8 L30.6908973,157 L75.5908973,157 L120.490897,157 L120.490897,85.3 C120.490897,17.8 120.690897,13.3 122.390897,9.5 C123.390897,7.2 125.690897,4.2 127.390897,2.7 C130.190897,0.4 131.490897,0 137.190897,0 C142.890897,0 144.790897,0.6 152.690897,4.5 C180.490897,18.3 199.690897,41.8 207.690897,71.8 C210.590897,82.8 211.190897,101.9 209.090897,113.3 C204.790897,136 193.390897,156.2 176.190897,171.9 C165.390897,181.6 148.090897,190.9 132.990897,195.1 C122.590897,198 93.7908973,198.8 83.4908973,196.5 Z M179.890897,150.3 C180.190897,146.5 180.690897,133.5 181.090897,121.3 C181.590897,102.5 181.490897,99 180.290897,99 C179.290897,99 178.390897,101.8 177.190897,108.1 C174.390897,122.7 165.790897,138.7 157.090897,145.4 C153.090897,148.4 142.990897,153.6 139.190897,154.5 C131.990897,156.3 136.990897,157 157.290897,157 L179.290897,157 L179.890897,150.3 Z" transform="matrix(1 0 0 -1 3.997 202.87)"></path> </g> </svg>