<svg xmlns="http://www.w3.org/2000/svg" width="2125" height="448" viewBox="0 0 2125 448"> <g transform="matrix(1 0 0 -1 0 448)"> <path d="M1224 445.4C1217.7 444.7 1201.6 443.8 1188.3 443.4L1164 442.7 1164 438.5 1164 434.3 1173.8 433.8C1187.8 433.1 1193.7 430.1 1198.3 421.5L1200.5 417.5 1200.8 276.5C1201 136.4 1201 135.5 1199 132.2 1195.9 127.2 1191.9 126 1178 126L1165.9 126 1166.2 121.8 1166.5 117.5 1221 117.5 1275.5 117.5 1275.8 121.8 1276.1 126 1263.5 126C1249 126 1245.1 127.1 1242.3 132.2 1240.6 135.3 1240.5 142.9 1240.2 291.3L1240 447 1237.7 446.9C1236.5 446.8 1230.3 446.1 1224 445.4zM1821.1 445.6C1816.3 443.9 1810.3 438.5 1807.8 433.7 1804.9 428.2 1804.7 418.1 1807.4 413 1812.1 404.1 1819.3 399.6 1829 399.6 1844.9 399.6 1855.7 413.5 1852 429.1 1851 433.3 1849.6 435.5 1845.6 439.5 1838.5 446.6 1829.8 448.8 1821.1 445.6zM3 443.3C3 442.8 2.3 422 1.5 397 .7 372 0 346.2 0 339.8L0 328 2.8 328C5.6 328 5.7 328.2 6.8 335.8 7.5 340 9.2 348 10.6 353.5 22.2 399.4 44 427.6 72.5 433.5 77.2 434.5 85.8 435 98.8 435L118 435 117.8 295.8 117.5 156.5 115.2 150.8C112 142.9 105.3 135.7 97.7 132.1 89.8 128.4 83.4 127.2 65.4 126.4L50.9 125.7 51.2 121.6 51.5 117.5 147.3 117.2 243 117 243 121.3 243 125.7 228.3 126.4C220.1 126.8 210.7 127.7 207.2 128.5 188.8 132.8 179.2 144 177 163.9 176.3 170.2 176 219.1 176 308.4L176.1 443.5 89.6 443.8C42 443.9 3 443.7 3 443.3zM202.2 443.4C202.5 443.1 205.3 442.2 208.4 441.4 223.5 437.5 243.8 426.3 253.5 416.5 260.7 409.3 271.6 393.4 276.4 382.9 283.1 368.5 287.8 351 289.5 334.8 290.2 328.1 290.3 328 293.2 328L296.2 328 295.5 340.3C295.2 347 294.3 372.7 293.4 397.4 292.6 422.1 291.7 442.7 291.4 443.1 291.1 443.6 270.8 444 246.3 444 221.7 444 201.9 443.7 202.2 443.4zM358 323.9C337.4 323 320.4 322.1 320.3 322.1 320.1 322 320 320 320 317.6L320 313.3 329.9 312.8C347.6 311.9 354.9 306.2 358.7 290.1 360.3 283.2 360.5 276.2 360.5 209.5 360.5 129.7 360.7 133.1 354.7 128.6 352.2 126.8 350.2 126.5 337.9 126.2L324 125.8 324 121.4 324 117 384 117 444 117 444 121.5 444 126 426.9 126C407.7 126 404.2 126.9 401.2 132.4 399.4 135.7 399.3 141.8 399.1 281.8 399 323.3 398.9 326 397.3 325.9 396.3 325.8 378.6 324.9 358 323.9zM1652.4 324.9C1644.6 323.6 1633.3 319.2 1626.2 314.8 1622.7 312.6 1620.1 310.6 1620.2 310.4 1620.4 310.2 1624.2 311.2 1628.5 312.6 1632.9 313.9 1640.9 315.6 1646.3 316.2 1682.8 320.6 1702.7 301.4 1711.2 254 1712.1 248.9 1712.5 237.5 1712.5 218.5 1712.5 187.4 1711.4 178.1 1705.8 162 1696.2 134.4 1676.4 119.2 1652.8 121.4 1622.7 124.1 1601.2 150.1 1595 191 1594.3 195.6 1593.7 222.9 1593.3 261.8L1592.7 325 1590.6 325C1585.6 325 1525.1 321.9 1521.3 321.4 1517.1 320.9 1517 320.8 1517 317.1L1517 313.3 1526.3 312.7C1531.3 312.4 1536.9 311.6 1538.5 311 1545.4 308.4 1549.8 301.1 1552.7 287.9 1554.4 280 1554.5 271.2 1554.5 149 1554.5 21.4 1554.5 18.4 1552.6 15.3 1549.5 10.3 1545 9 1530.5 9L1518 9 1518 4.5 1518 4.54747351e-14 1577.3.2 1636.5.5 1636.8 4.7 1637.1 8.8 1619.3 9.2C1604.3 9.4 1601.1 9.8 1598.9 11.3 1593.4 15 1593.5 13.2 1593.2 84.4L1592.9 150.3 1602.7 140C1613.2 128.9 1623.3 121.5 1632.8 118 1657.4 108.7 1687.7 113.1 1712.7 129.7 1721.1 135.2 1734 148 1740 156.6 1764.9 192.7 1765.2 246.4 1740.6 283.3 1734.3 292.9 1719.2 307.8 1710.7 312.8 1692.1 323.9 1671.7 328.1 1652.4 324.9zM1812.5 323.9C1792.7 323 1776.4 322.1 1776.3 322.1 1776.1 322 1776 320.2 1776 318.1L1776 314.2 1784.3 313.5C1799.9 312.3 1805.7 309.3 1810.6 300 1812.4 296.7 1812.5 292.6 1812.5 216 1812.5 141 1812.4 135.3 1810.7 132.3 1808 127.3 1805.7 126.6 1792 126L1779.5 125.5 1779.5 121.5 1779.5 117.5 1831.8 117.2 1884 117 1884 121.5 1884 126 1873.5 126C1862.2 126 1857.9 127.1 1854.5 131 1852.5 133.2 1852.5 135 1852 229.3 1851.6 313.8 1851.3 325.5 1850 325.6 1849.2 325.7 1832.3 324.9 1812.5 323.9zM1044 324C1003.1 318.3 970.6 288.5 959.5 246.5 955.9 233.1 955 210.8 957.4 197.8 964.6 159.4 988.9 128.7 1021.1 117.4 1051.3 106.8 1087.4 112.3 1111.8 131.4 1122.2 139.5 1131.6 149.1 1138.1 158.2L1140 160.8 1136.4 162.9C1134.4 164.1 1132.7 165 1132.6 164.8 1126 155.1 1114 142.8 1105.7 137.1 1084.3 122.5 1057.3 120 1036.7 130.7 1021.4 138.7 1010.1 154.6 1004.3 176.5 1001.6 186.5 1001.6 186.5 1001.5 224 1001.5 260.1 1001.6 261.8 1003.8 269.9 1009.3 290.1 1019.5 303.7 1034.8 311.3L1043.3 315.5 1056.4 315.5C1069.3 315.5 1069.6 315.4 1076.4 312.1 1085.3 307.8 1092.2 300.9 1096.3 292.2 1099.4 285.7 1099.5 285.2 1099.5 271.5 1099.5 258.2 1099.4 257.2 1096.8 252.4 1093.5 246.1 1088.1 241.4 1082 239.5 1077.9 238.3 1080.5 238.1 1109.4 238.1L1141.3 238 1140.6 244.5C1138.3 267.5 1124.7 292.5 1106.9 306.5 1098.5 313.1 1084.6 320 1074.9 322.4 1066.6 324.4 1052.4 325.1 1044 324zM1378.2 323.6C1355.9 319.3 1338.3 310.3 1322.2 294.6 1291.6 265 1282.2 219.6 1298.2 179.1 1323.6 114.8 1406.9 92.8 1463 135.6 1490.4 156.4 1506.7 194.4 1503 228.6 1498.1 274.8 1466.8 310.8 1421.9 322.1 1411 324.8 1388.8 325.6 1378.2 323.6zM1411.5 315.5C1436.5 310.2 1450.7 290.5 1456.6 253.3 1458.7 240 1459 201.5 1457.1 186.5 1452.4 149.7 1438.4 129.3 1413.9 123.5 1405.7 121.6 1387.4 121.6 1379.2 123.5 1357.1 128.7 1344 146.4 1338.5 178.5 1334.4 202.5 1334.6 243.6 1338.9 264.5 1346.1 299.5 1364.9 316.6 1396.5 316.9 1400.9 316.9 1407.7 316.3 1411.5 315.5zM1989.3 323.9C1976.1 322.6 1961.9 318.7 1951 313.4 1938.7 307.3 1927.7 296.8 1922.8 286.5 1918.8 277.8 1917.9 267.8 1920.5 259.9 1922.8 253.1 1930.6 245 1936.6 243.2 1950.7 239.1 1964 245.2 1968.5 257.9 1971.5 266.5 1969.9 272.8 1962.6 280.7 1955.9 288 1954.8 290.1 1954.8 295.7 1954.8 308.6 1974.1 317 2000.5 315.7 2018.8 314.7 2028.6 310.3 2034.7 300.1 2040 291.3 2041.1 283.7 2040.8 259L2040.5 237.5 2028 233.3C2021.1 231 2005.8 226.6 1994 223.5 1966 216.2 1952.5 211.8 1941.9 206.4 1917 193.6 1902.5 171 1907 151.9 1912.9 126.7 1940.9 110.5 1972.3 114 1983.3 115.3 1997.2 119.8 2005.4 124.7 2011.5 128.4 2024.3 139.9 2026.1 143.3 2026.7 144.3 2024.2 143 2020.3 140.4 1990.5 119.9 1963.6 121.8 1954.9 145 1948.6 161.9 1953.6 187.9 1965.4 199.4 1974 207.7 1982.2 211.3 2008.4 218.5 2017.2 220.9 2028.1 224.1 2032.6 225.7L2040.7 228.6 2041.4 191.6C2042.1 152.7 2042.7 145.4 2046.1 136.5 2057.1 107 2103.9 107.4 2117.5 137.2 2121.4 145.8 2123 153.7 2123.7 167.8L2124.3 181 2119.7 181 2115 181 2115 171.3C2115 150.1 2110 136.2 2100.8 131.4 2094.1 127.9 2086.2 131.1 2082.7 138.8 2080.5 143.4 2080.5 144.4 2079.9 208.5 2079.4 265.7 2079.2 274.2 2077.7 279.5 2070.3 305.5 2050.9 319.9 2018 324 2008.5 325.1 2002.5 325.1 1989.3 323.9zM446.2 322.5C443.3 321.7 439.5 320.3 437.7 319.4 432.5 316.7 422.8 306 418.3 298 412.8 288.2 411.7 284.7 416.6 292.9 421.8 301.4 428.9 308.4 434.5 310.5 438.3 312 439.7 312.1 443 311.1 449.8 309.1 451.2 304 448.8 289.9 445.5 269.9 457.7 257.2 475.5 262.1 478.2 262.8 481.2 264.9 484.6 268.4 488.8 272.7 490 274.8 491.5 280.3 496.1 297.2 487.2 315 471.1 321.1 463.8 323.8 453.1 324.4 446.2 322.5zM626.5 320.6C630.5 318.9 636.7 311.9 639.1 306.4 643.9 295.1 644.4 290.9 644.5 263.5L644.5 237.5 632 233.3C625.1 231 608.9 226.3 596 223 559.5 213.5 548 209.1 534.5 199.5 519.7 189 510 173 510 159.1 510 136.6 530.8 117.6 559.3 114 575.5 112 598.5 115.8 613.3 123.1 622.4 127.5 632.2 135.2 639.3 143.4 642.6 147.3 645.6 150.4 645.9 150.3 646.2 150.2 647 147.4 647.6 144.2 651.8 123.6 669.5 111.7 690.7 115 709.1 117.9 721.4 130.2 725.5 149.7 726.3 153.5 727 162 727 168.8L727 181 723.1 181 719.3 181 718.7 168.3C717.8 148.7 713.9 137.6 706 132.2 703.1 130.3 701.6 129.9 697.5 130.3 693.3 130.7 692.1 131.3 689.4 134.4 683.7 141 683.7 141.7 683 212.5 682.5 261.5 682 278.5 681.1 281.5 679.2 287.2 675.3 294.8 671.4 300.1 662.8 311.8 642.7 322.1 628.4 322.000722L623.5 321.9 626.5 320.6zM644.8 193.9L644.5 169.4 640.6 161.4C633 146 615.3 132 597.5 127.5 579.9 123.1 566 128.8 559.5 143.2 557.2 148.4 556.6 151.3 556.2 159.5 555.2 183.4 564.1 199.7 583.3 208.9 588.1 211.2 599.9 215.1 611.5 218.3 622.5 221.4 634.4 224.9 638 226.2L644.5 228.5 644.8 223.5C645 220.8 645 207.4 644.8 193.9zM709 318.1L709 314.3 719.9 313.8C732.7 313.2 737.8 311 742 304.5 743.5 302.3 762.1 259.8 783.5 210 804.9 160.2 822.8 118.9 823.3 118.2 824 117.4 826 117 828.8 117.2L833.2 117.5 841.1 135C845.4 144.6 849 153.3 849 154.3 849 155.3 848 158 846.9 160.3 845.7 162.6 832.1 194.2 816.8 230.5 786.6 301.8 785.8 304.3 790.1 309.4 793.3 313 797.9 313.9 813.3 314L826 314 826 318 826 322 767.5 322 709 322 709 318.1zM864 318.1L864 314.2 871.4 313.5C883.1 312.4 890.9 307.2 895.1 297.6 897 293.4 897.4 290.8 897.3 283 897.2 277.8 896.5 271 895.7 268 894.8 265 894.3 262.3 894.5 262.2 894.7 262 896.1 264.2 897.6 267.2 899 270.1 902.7 276.3 905.7 280.9 920.9 304.4 930.1 311.6 947.3 313.5L953 314.1 953 318.1 953 322 908.5 322 864 322 864 318.1z"></path> <path d="M567.5,318.6 C558.5,315.7 547.7,310.1 541.7,305.1 C524.8,291.1 518.3,271.1 525.8,256.3 C528.2,251.6 534.9,245.4 539.6,243.4 C544,241.5 554.2,241.6 558.8,243.6 C567.3,247.1 573.4,256.1 573.4,265 C573.4,271.5 571.9,274.8 565,282.6 C558.7,289.8 557.2,294.4 558.9,300.8 C560.4,306.7 564.6,312.3 571.1,317.1 C577,321.6 576.9,321.7 567.5,318.6 Z"></path> </g> </svg>